{
    "asset" : {
        "generator" : "Khronos glTF Blender I/O v1.5.17",
        "version" : "2.0"
    },
    "scene" : 0,
    "scenes" : [
        {
            "name" : "Scene",
            "nodes" : [
                0
            ]
        }
    ],
    "nodes" : [
        {
            "mesh" : 0,
            "name" : "Field",
            "rotation" : [
                0,
                0.06540313363075256,
                0,
                0.9978589415550232
            ],
            "scale" : [
                4,
                4,
                4
            ],
            "translation" : [
                1.3135236501693726,
                0,
                -6.724379539489746
            ]
        }
    ],
    "materials" : [
        {
            "doubleSided" : true,
            "name" : "Material.002",
            "pbrMetallicRoughness" : {
                "baseColorFactor" : [
                    0.29285717010498047,
                    0.7705641388893127,
                    1,
                    1
                ],
                "metallicFactor" : 0
            }
        }
    ],
    "meshes" : [
        {
            "name" : "Circle.008",
            "primitives" : [
                {
                    "attributes" : {
                        "POSITION" : 0,
                        "NORMAL" : 1,
                        "TEXCOORD_0" : 2
                    },
                    "indices" : 3,
                    "material" : 0
                }
            ]
        }
    ],
    "accessors" : [
        {
            "bufferView" : 0,
            "componentType" : 5126,
            "count" : 750,
            "max" : [
                8.253931045532227,
                0.25,
                2.7855238914489746
            ],
            "min" : [
                -1,
                0,
                -11.916814804077148
            ],
            "type" : "VEC3"
        },
        {
            "bufferView" : 1,
            "componentType" : 5126,
            "count" : 750,
            "type" : "VEC3"
        },
        {
            "bufferView" : 2,
            "componentType" : 5126,
            "count" : 750,
            "type" : "VEC2"
        },
        {
            "bufferView" : 3,
            "componentType" : 5123,
            "count" : 1548,
            "type" : "SCALAR"
        }
    ],
    "bufferViews" : [
        {
            "buffer" : 0,
            "byteLength" : 9000,
            "byteOffset" : 0
        },
        {
            "buffer" : 0,
            "byteLength" : 9000,
            "byteOffset" : 9000
        },
        {
            "buffer" : 0,
            "byteLength" : 6000,
            "byteOffset" : 18000
        },
        {
            "buffer" : 0,
            "byteLength" : 3096,
            "byteOffset" : 24000
        }
    ],
    "buffers" : [
        {
            "byteLength" : 27096,
            "uri" : "data:application/octet-stream;base64,"
        }
    ]
}
